# xmcd
#
# Track frame offsets: 
#        150
#        17005
#        30096
#        40881
#        66141
#        79762
#        92526
#        117123
#        129488
#        138966
#        158092
#        179232
#        188255
#        213310
#        228557
#        240556
#        254524
#        266532
#
# Disc length: 3717 seconds
#
# Revision: 1
# Processed by: cddbd v1.5.1PL2 Copyright (c) Steve Scherf et al.
# Submitted via: ExactAudioCopy v0.95a5
#
DISCID=e60e8312
DTITLE=Eddie Boyd - The Complete Blue Horizon Sessions
DYEAR=2006
DGENRE=Blues
TTITLE0=It's So Miserable To Be Alone
TTITLE1=Empty Arms
TTITLE2=You Got To Reap
TTITLE3=Just The Blues
TTITLE4=She's Real
TTITLE5=Back Slack
TTITLE6=Be Careful
TTITLE7=Ten To One
TTITLE8=The Blues Is Here To Stay
TTITLE9=You Are My Love
TTITLE10=Third Degree
TTITLE11=Thank You Baby
TTITLE12=She's Gone
TTITLE13=(I Can't Stop) Loving You
TTITLE14=The Big Boat
TTITLE15=Sent For You Yesterday And Here You Come Today
TTITLE16=The Stroller
TTITLE17=No Place Like Home
EXTD=
EXTT0=
EXTT1=
EXTT2=
EXTT3=
EXTT4=
EXTT5=
EXTT6=
EXTT7=
EXTT8=
EXTT9=
EXTT10=
EXTT11=
EXTT12=
EXTT13=
EXTT14=
EXTT15=
EXTT16=
EXTT17=
PLAYORDER=
